<?xml version="1.0" encoding="iso-8859-1"?>
<!-- Generator: Adobe Illustrator 19.1.0, SVG Export Plug-In . SVG Version: 6.00 Build 0)  -->
<svg version="1.1" id="Capa_1" xmlns="http://www.w3.org/2000/svg" xmlns:xlink="http://www.w3.org/1999/xlink" x="0px" y="0px"
	 viewBox="0 0 192.924 192.924" style="enable-background:new 0 0 192.924 192.924;" xml:space="preserve">
<g id="XMLID_13_">
	<path id="XMLID_28_" style="fill:#020400;" d="M192.376,133.784c-1.464-2.578-2.745-5.263-4.557-7.646
		c-3.062-4.026-5.542-8.349-6.73-13.352c-0.498-2.098-1.627-3.961-3.155-5.517c-1.478-1.505-3.171-2.154-5.306-1.347
		c-4.118,1.557-4.131,1.52-5.917-2.723c-0.216-0.514-0.421-1.037-0.68-1.529c-2.191-4.163-5.015-4.901-8.797-2.123
		c-0.605,0.444-1.093,0.668-1.547,0.678c-0.327,0.154-0.654,0.298-0.984,0.406c-1.582,0.689-3.171,1.361-4.738,2.083
		c-1.512,0.697-2.987,1.925-4.622,2.243c-0.079,0.015-0.157,0.024-0.234,0.034c-0.272,0.148-0.578,0.275-0.941,0.369
		c-4.815,1.248-9.681,1.794-14.645,1.255c-0.627-0.068-1.416,0.09-1.628-0.728c-0.196-0.757,0.372-1.296,0.968-1.517
		c2.186-0.812,2.694-2.642,3.006-4.637c0.159-1.019,0.37-2.028,1.369-3.178c0.46-1.367,1.103-2.685,1.693-3.858
		c0.555-1.103,1.239-2.291,2.083-3.289c0.082-0.311,0.264-0.686,0.485-1.104c2.128-4.037,4.051-8.174,5.448-12.52
		c3.781-11.764-0.537-24.974-14.837-29.539c-5.754-1.837-11.722-1.762-17.572-2.688c-0.654-0.103-1.37,0.037-1.786,0.594
		c-1.248,1.671-3.016,1.526-4.797,1.571c-7.966,0.199-15.675,1.509-23.027,4.823c-11.875,5.353-23.489,11.248-35.287,16.754
		c-5.61,2.618-10.89,5.627-15.476,9.822c-3.332,3.047-5.943,6.419-5.962,11.21c-0.003,0.74-0.044,1.511-0.648,2.072
		c-2.954,2.742-6.063,4.8-10.41,3.133c-1.443-0.553-3.04-0.841-4.657-0.606c-4.116,0.6-6.37,3.179-7.255,8.986
		c-1.01,6.626-1.463,13.315-1.122,20.02c0.288,5.654,2.822,7.921,8.512,7.957c1.103,0.007,2.239-0.312,3.304,0.215
		c0.581,0.288,1.306,0.585,1.372,1.272c0.086,0.895-0.819,0.845-1.388,1.045c-1.052,0.37-2.121,0.69-3.182,1.036
		c-1.025,0.334-1.909,1.282-1.141,2.009c1.056,1,1.372,1.862,1.156,3.208c-0.047,0.296,0.718,1.017,1.144,1.046
		c3.122,0.219,6.059,1.968,9.293,1.152c1.477-0.372,2.941-0.322,4.426-0.065c5.87,1.014,11.804,1.366,17.739,1.729
		c1.882,0.115,3.616-0.148,4.651-1.86c1.096-1.814,2.648-2.997,4.369-4.169c3.299-2.246,6.438-4.729,9.62-7.145
		c7.234-5.496,12.629-12.549,17.154-20.332c1.433-2.464,3.356-4.101,6.373-4.369c1.56-0.139,3.141-0.685,3.568-2.593
		c0.307-1.373,1.367-2.377,2.515-1.8c1.106,0.556,1.017,2.07,0.309,3.247c-0.24,0.398-0.477,0.8-0.745,1.179
		c-2.529,3.593-4.426,7.536-6.323,11.475c-1.51,3.135-1.512,6.484-1.194,9.843c0.109,1.155,1.136,2.047,0.77,3.434
		c-0.827,3.137-0.325,6.284,0.386,9.383c0.888,3.874,2.179,5.203,6.239,5.596c10.717,1.039,21.532,0.219,32.234,2.125
		c9.251,1.648,18.734,0.853,28.08,1.719c3.515,0.325,7.018,0.771,10.532,1.102c2.913,0.274,4.869-1.504,4.9-4.428
		c0.006-0.582-0.092-1.215,0.475-1.482c2.399-1.127,2.073-3.279,2.071-5.308c-0.002-2.419-0.047-4.838-0.058-7.257
		c-0.004-0.817-0.197-1.82,0.958-2.006c1.036-0.167,1.816,0.296,2.052,1.405c0.414,1.943,1.752,1.963,3.214,1.455
		c1.061-0.369,2.108-1.061,3.01,0.13c0.848,1.119-0.252,1.889-0.7,2.726c-0.758,1.413-1.226,2.925,0.096,4.09
		c1.333,1.175,2.98,0.838,4.418-0.05c0.595-0.368,1.053-0.958,1.58-1.453c2.348,2.962,4.104,3.402,8.176,2.134
		C192.574,138.552,193.672,136.065,192.376,133.784z M54.472,112.591c-0.496,2.212-5.834,5.979-8.042,5.578
		c-1.198-0.217-1.167-1.248-1.245-2.026c0.225-4.635,4.513-7.224,8.54-5.337C54.607,111.219,54.655,111.772,54.472,112.591z"/>
</g>
<g>
</g>
<g>
</g>
<g>
</g>
<g>
</g>
<g>
</g>
<g>
</g>
<g>
</g>
<g>
</g>
<g>
</g>
<g>
</g>
<g>
</g>
<g>
</g>
<g>
</g>
<g>
</g>
<g>
</g>
</svg>
